<svg id="Layer_1" data-name="Layer 1" xmlns="http://www.w3.org/2000/svg" width="44.77mm" height="19.44mm" viewBox="0 0 126.9 55.11">
  <defs>
    <style>
      .cls-1 {
        fill: #fff;
        stroke: #000;
        stroke-miterlimit: 10;
      }
    </style>
  </defs>
  <title>signature</title>
  <path class="cls-1" d="M5.5,10.5c1.34.18,3.45.48,6,1,5.78,1.17,6.05,1.82,9,2,2.07.12,6.26.38,10-2,1.87-1.19,2.32-2.21,3-2,1.74.53.81,7.79,0,16-2.05,20.8-.9,22.9-4,28-.87,1.43-6.75,11.1-14,10-6.17-.94-9.37-9.08-10-14-.18-1.38-.91-7.06,2-9,1.68-1.12,3.48-.25,9,1a82,82,0,0,0,12,2,52.06,52.06,0,0,0,14-1,37.76,37.76,0,0,0,8.56-2.27c2.55-1.08,4.07-2.14,4.44-1.73.78.86-6.1,5.63-6,12a11.15,11.15,0,0,0,3,7c5.35,6,18.18,7.15,25,0A17.09,17.09,0,0,0,80.84,40a10.19,10.19,0,0,0-2.34-3.5c-3-2.84-6.89-3-10-3-5.65-.08-12,1.57-12,3,0,.3.32,1,5,2,6.18,1.37,15.52,3.43,28,0,7.16-2,11.59-4.71,12-4s-3.88,4-8,7a11.51,11.51,0,0,0,3,16c6.06,4.29,14,0,16-1,2.21-1.16,5.89-3.1,7-7,.75-2.64,0-5-1-8-.89-2.74-1.67-5.13-4-7-.45-.37-3.54-2.78-7-2-1.26.28-3,1.09-3,2s2.11,1.7,3,2c5.61,1.89,17.89-2.56,24-5" transform="translate(-4.79 -8.97)"/>
  <path class="cls-1" d="M20.5,27.5a40.1,40.1,0,0,0,6,1,91,91,0,0,0,10,0c1.57,0,4-.05,7,0" transform="translate(-4.79 -8.97)"/>
</svg>
