<svg id="Layer_1" data-name="Layer 1" xmlns="http://www.w3.org/2000/svg" width="0.7in" height="0.75in" viewBox="0 0 50.54 54.1">
  <title>u</title>
  <path d="M51.7,11h11L57,45.58A20.3,20.3,0,0,1,52.5,55.64a22.26,22.26,0,0,1-8.74,6.28,30.33,30.33,0,0,1-11.57,2.15,25.28,25.28,0,0,1-10.88-2.15,13.75,13.75,0,0,1-6.63-6.28,16.06,16.06,0,0,1-1.13-10.06L19.28,11H30.35L24.7,45.2q-.69,4.19,1.9,6.59a10.16,10.16,0,0,0,7.2,2.41,13.76,13.76,0,0,0,8.07-2.41A9.6,9.6,0,0,0,46,45.2Z" transform="translate(-12.74 -10.46)" style="fill: none;stroke: #231f20"/>
</svg>
