<svg xmlns="http://www.w3.org/2000/svg" width="318" height="212" viewBox="0 0 318 212">
  <defs>
    <style>
      .cls-1, .cls-2, .cls-3, .cls-4, .cls-6, .cls-9 {
        fill: none;
      }

      .cls-1, .cls-2, .cls-3, .cls-4, .cls-6 {
        stroke: #fff;
        stroke-miterlimit: 10;
      }

      .cls-1 {
        stroke-width: 2px;
      }

      .cls-3 {
        stroke-dasharray: 4.04 4.04;
      }

      .cls-4 {
        stroke-dasharray: 1;
      }

      .cls-5 {
        font-size: 10px;
        letter-spacing: -0.01em;
      }

      .cls-5, .cls-7 {
        fill: #fff;
      }

      .cls-5, .cls-8 {
        font-family: Courier-Bold, Courier;
        font-weight: 700;
      }

      .cls-6 {
        stroke-dasharray: 4;
      }

      .cls-7 {
        font-size: 14px;
        font-family: Courier;
        letter-spacing: -0.01em;
      }

      .cls-8 {
        font-size: 13px;
        fill: red;
        letter-spacing: -0.01em;
      }

      .cls-9 {
        stroke: red;
        stroke-linejoin: bevel;
        stroke-width: 3px;
      }
    </style>
  </defs>
  <title>r-graph-mock</title>
  <g id="bg">
    <rect width="318" height="212"/>
  </g>
  <g id="axes">
    <polyline class="cls-1" points="293 178 37 178 37 9"/>
    <line class="cls-2" x1="76.5" y1="169" x2="76.5" y2="186"/>
    <line class="cls-2" x1="115.5" y1="169" x2="115.5" y2="186"/>
    <line class="cls-2" x1="154.5" y1="169" x2="154.5" y2="186"/>
    <line class="cls-2" x1="193.5" y1="169" x2="193.5" y2="186"/>
    <line class="cls-2" x1="232.5" y1="169" x2="232.5" y2="186"/>
    <g>
      <line class="cls-2" x1="28" y1="145.5" x2="45" y2="145.5"/>
      <line class="cls-2" x1="28" y1="118.13" x2="45" y2="118.13"/>
      <line class="cls-2" x1="28" y1="90.75" x2="45" y2="90.75"/>
      <line class="cls-2" x1="28" y1="63.38" x2="45" y2="63.38"/>
      <line class="cls-2" x1="28" y1="36" x2="45" y2="36"/>
    </g>
  </g>
  <g id="plots">
    <polyline class="cls-2" points="232.5 36.5 193.5 45.5 154.5 57.5 115.5 145.5 76.5 163.5"/>
    <g>
      <line class="cls-2" x1="76.5" y1="118.5" x2="78.08" y2="117.27"/>
      <polyline class="cls-3" points="81.27 114.79 112.5 90.5 154.5 46.5 193.5 36.5 228.51 32.01"/>
      <line class="cls-2" x1="230.52" y1="31.75" x2="232.5" y2="31.5"/>
    </g>
    <polyline class="cls-4" points="76.5 123.5 116.5 99.5 154.5 51.5 193.5 41.5 232.5 33.5"/>
  </g>
  <g id="text-legend">
    <line class="cls-4" x1="182.5" y1="122.5" x2="210.5" y2="122.5"/>
    <line class="cls-2" x1="183" y1="144.5" x2="211" y2="144.5"/>
    <text class="cls-5" transform="translate(218.7 125.93)">Mov. Plat. Avg.</text>
    <line class="cls-6" x1="182" y1="103.5" x2="210" y2="103.5"/>
    <text class="cls-5" transform="translate(218.2 106.93)">Prusa Average</text>
    <text class="cls-7" transform="translate(84.7 203.93)">Bridge Length (mm)</text>
    <text class="cls-7" transform="translate(15.04 109.19) rotate(-90)">Score</text>
    <text class="cls-5" transform="translate(218.7 146.93)">This Machine</text>
  </g>
  <g id="red">
    <text class="cls-8" transform="translate(57.7 35.93)">Recommendation</text>
    <polygon class="cls-9" points="116 144 116 87 154 47 154 58 116 144"/>
  </g>
</svg>
