<svg width="44" height="48" viewBox="0 0 44 48" fill="none" xmlns="http://www.w3.org/2000/svg">
<path d="M3.00006 13.4443L8.21141 16.4179" stroke="#303030" stroke-width="3" stroke-linecap="round" stroke-linejoin="round"/>
<path d="M40.5642 13.4443L35.3529 16.4179" stroke="#303030" stroke-width="3" stroke-linecap="round" stroke-linejoin="round"/>
<path d="M22.0001 39.4443L22.0001 45.4443" stroke="#303030" stroke-width="3" stroke-linecap="round" stroke-linejoin="round"/>
<path d="M41.9996 32.8018C41.9996 32.8018 42.0004 15.9699 41.9996 15.1982C41.9988 14.4264 41.7931 13.6685 41.4031 13.0003C41.013 12.3321 39.7774 11.3914 39.7774 11.3914L24.222 2.58961C23.5464 2.20335 22.78 2 21.9998 2C21.2197 2 20.4533 2.20335 19.7776 2.58961L4.2222 11.3914C3.54724 11.7773 2.98661 12.3321 2.59658 13.0003C2.20654 13.6685 2.0008 14.4264 2 15.1982V32.8018C2.0008 33.5736 2.20654 34.3315 2.59658 34.9997C2.98661 35.6679 3.54724 36.2227 4.2222 36.6086L19.7776 45.4104C20.4533 45.7966 21.2197 46 21.9998 46C22.78 46 23.5464 45.7966 24.222 45.4104L39.7774 36.6086C40.4524 36.2227 41.013 35.6679 41.4031 34.9997C41.7931 34.3315 41.9988 33.5736 41.9996 32.8018Z" stroke="#303030" stroke-width="3" stroke-linecap="round" stroke-linejoin="round"/>
<mask id="path-5-inside-1" fill="white">
<path fill-rule="evenodd" clip-rule="evenodd" d="M32 24C32 29.5228 27.5228 34 22 34C16.4772 34 12 29.5228 12 24C12 18.4772 16.4772 14 22 14C27.5228 14 32 18.4772 32 24ZM22.0001 18.5C22.8285 18.5 23.5001 19.1716 23.5001 20V22.5H26.0001C26.8285 22.5 27.5001 23.1716 27.5001 24C27.5001 24.8284 26.8285 25.5 26.0001 25.5H23.5001V28C23.5001 28.8284 22.8285 29.5 22.0001 29.5C21.1716 29.5 20.5001 28.8284 20.5001 28V25.5H18.0001C17.1716 25.5 16.5001 24.8284 16.5001 24C16.5001 23.1716 17.1716 22.5 18.0001 22.5H20.5001V20C20.5001 19.1716 21.1716 18.5 22.0001 18.5Z"/>
</mask>
<path fill-rule="evenodd" clip-rule="evenodd" d="M32 24C32 29.5228 27.5228 34 22 34C16.4772 34 12 29.5228 12 24C12 18.4772 16.4772 14 22 14C27.5228 14 32 18.4772 32 24ZM22.0001 18.5C22.8285 18.5 23.5001 19.1716 23.5001 20V22.5H26.0001C26.8285 22.5 27.5001 23.1716 27.5001 24C27.5001 24.8284 26.8285 25.5 26.0001 25.5H23.5001V28C23.5001 28.8284 22.8285 29.5 22.0001 29.5C21.1716 29.5 20.5001 28.8284 20.5001 28V25.5H18.0001C17.1716 25.5 16.5001 24.8284 16.5001 24C16.5001 23.1716 17.1716 22.5 18.0001 22.5H20.5001V20C20.5001 19.1716 21.1716 18.5 22.0001 18.5Z" fill="#303030"/>
<path d="M23.5001 22.5H20.5001C20.5001 24.1569 21.8432 25.5 23.5001 25.5V22.5ZM23.5001 25.5V22.5C21.8432 22.5 20.5001 23.8431 20.5001 25.5H23.5001ZM20.5001 25.5H23.5001C23.5001 23.8431 22.1569 22.5 20.5001 22.5V25.5ZM20.5001 22.5V25.5C22.1569 25.5 23.5001 24.1569 23.5001 22.5H20.5001ZM22 37C29.1797 37 35 31.1797 35 24H29C29 27.866 25.866 31 22 31V37ZM9 24C9 31.1797 14.8203 37 22 37V31C18.134 31 15 27.866 15 24H9ZM22 11C14.8203 11 9 16.8203 9 24H15C15 20.134 18.134 17 22 17V11ZM35 24C35 16.8203 29.1797 11 22 11V17C25.866 17 29 20.134 29 24H35ZM26.5001 20C26.5001 17.5147 24.4853 15.5 22.0001 15.5V21.5C21.1716 21.5 20.5001 20.8284 20.5001 20H26.5001ZM26.5001 22.5V20H20.5001V22.5H26.5001ZM23.5001 25.5H26.0001V19.5H23.5001V25.5ZM26.0001 25.5C25.1716 25.5 24.5001 24.8284 24.5001 24H30.5001C30.5001 21.5147 28.4853 19.5 26.0001 19.5V25.5ZM24.5001 24C24.5001 23.1716 25.1716 22.5 26.0001 22.5V28.5C28.4853 28.5 30.5001 26.4853 30.5001 24H24.5001ZM26.0001 22.5H23.5001V28.5H26.0001V22.5ZM26.5001 28V25.5H20.5001V28H26.5001ZM22.0001 32.5C24.4853 32.5 26.5001 30.4853 26.5001 28H20.5001C20.5001 27.1716 21.1716 26.5 22.0001 26.5V32.5ZM17.5001 28C17.5001 30.4853 19.5148 32.5 22.0001 32.5V26.5C22.8285 26.5 23.5001 27.1716 23.5001 28H17.5001ZM17.5001 25.5V28H23.5001V25.5H17.5001ZM20.5001 22.5H18.0001V28.5H20.5001V22.5ZM18.0001 22.5C18.8285 22.5 19.5001 23.1716 19.5001 24H13.5001C13.5001 26.4853 15.5148 28.5 18.0001 28.5V22.5ZM19.5001 24C19.5001 24.8284 18.8285 25.5 18.0001 25.5V19.5C15.5148 19.5 13.5001 21.5147 13.5001 24H19.5001ZM18.0001 25.5H20.5001V19.5H18.0001V25.5ZM17.5001 20V22.5H23.5001V20H17.5001ZM22.0001 15.5C19.5148 15.5 17.5001 17.5147 17.5001 20H23.5001C23.5001 20.8284 22.8285 21.5 22.0001 21.5V15.5Z" fill="#303030" mask="url(#path-5-inside-1)"/>
</svg>
